<svg xmlns="http://www.w3.org/2000/svg" width="1000" height="1000" viewBox="0 0 1000 1000"><rect width="100%" height="100%" fill="#DDDDDD"/><path fill="#999999" d="M256.98 493.82q0 6.59-2.2 12.11t-6.18 9.51q-3.99 3.98-9.59 6.18-5.6 2.2-12.45 2.2h-22.87v-60.01h22.87q6.85 0 12.45 2.22t9.59 6.18q3.98 3.97 6.18 9.49 2.2 5.52 2.2 12.12Zm-11.45 0q0-4.94-1.31-8.86-1.31-3.93-3.78-6.64-2.47-2.72-5.97-4.18-3.51-1.45-7.91-1.45H214.9v42.25h11.66q4.4 0 7.91-1.45 3.5-1.46 5.97-4.17 2.47-2.72 3.78-6.64 1.31-3.93 1.31-8.86Zm50.13-12.58h8.21l-23.19 54.28q-.46 1.08-1.19 1.64-.72.56-2.22.56h-7.63l7.97-17.1-17.23-39.38h9.01q1.2 0 1.89.58.68.58 1.01 1.33l9.05 22.08q.46 1.12.77 2.24t.6 2.28q.37-1.16.75-2.3.37-1.14.83-2.26l8.55-22.04q.33-.83 1.1-1.37.76-.54 1.72-.54Zm22.2 1.87.71 3.36q1.28-1.29 2.71-2.39 1.44-1.1 3.03-1.86 1.6-.77 3.43-1.21 1.82-.43 3.98-.43 3.49 0 6.18 1.18 2.7 1.18 4.51 3.32 1.8 2.14 2.74 5.1.93 2.97.93 6.54v27.1h-10.25v-27.1q0-3.9-1.78-6.04-1.79-2.13-5.44-2.13-2.66 0-4.98 1.2-2.33 1.2-4.4 3.28v30.79h-10.25v-42.58h6.27q1.99 0 2.61 1.87Zm60.42 29.71v-7.18q-4.44.21-7.47.77-3.03.56-4.85 1.43-1.83.87-2.62 2.04-.78 1.16-.78 2.53 0 2.7 1.59 3.86 1.6 1.16 4.17 1.16 3.16 0 5.46-1.14t4.5-3.47Zm-21.66-22.37-1.82-3.27q7.34-6.73 17.67-6.73 3.74 0 6.69 1.23 2.94 1.22 4.98 3.4 2.03 2.18 3.09 5.21t1.06 6.64v26.89h-4.65q-1.45 0-2.24-.44-.79-.43-1.25-1.76l-.91-3.07q-1.62 1.45-3.16 2.55-1.53 1.1-3.19 1.85t-3.55 1.14q-1.89.39-4.17.39-2.7 0-4.98-.72-2.28-.73-3.94-2.18-1.66-1.45-2.58-3.61-.91-2.16-.91-5.02 0-1.62.54-3.22t1.76-3.05q1.23-1.45 3.18-2.74 1.95-1.29 4.79-2.24 2.85-.95 6.62-1.56 3.78-.6 8.63-.72v-2.49q0-4.28-1.82-6.33-1.83-2.05-5.27-2.05-2.49 0-4.13.58-1.64.58-2.89 1.3-1.24.73-2.26 1.31-1.01.58-2.26.58-1.08 0-1.83-.56-.74-.56-1.2-1.31Zm51.54 33.37h-10.25v-42.58h6.27q1.99 0 2.61 1.87l.67 3.15q1.12-1.24 2.34-2.28 1.23-1.04 2.62-1.78 1.39-.75 2.99-1.19 1.59-.43 3.5-.43 4.03 0 6.62 2.18 2.6 2.17 3.88 5.79 1-2.12 2.49-3.64 1.5-1.51 3.28-2.47 1.79-.95 3.8-1.41 2.01-.45 4.04-.45 3.53 0 6.27 1.08 2.74 1.07 4.61 3.15 1.86 2.07 2.84 5.06.98 2.99.98 6.85v27.1h-10.26v-27.1q0-4.07-1.78-6.12t-5.23-2.05q-1.58 0-2.92.53-1.35.54-2.37 1.56t-1.6 2.55q-.58 1.54-.58 3.53v27.1h-10.29v-27.1q0-4.27-1.72-6.22-1.73-1.95-5.05-1.95-2.24 0-4.17 1.09-1.93 1.1-3.59 3.01v31.17Zm59.6-42.58h10.29v42.58h-10.29v-42.58Zm11.7-12.41q0 1.33-.54 2.49-.54 1.16-1.43 2.04-.89.87-2.1 1.39-1.2.52-2.57.52-1.33 0-2.51-.52-1.18-.52-2.05-1.39-.88-.88-1.39-2.04-.52-1.16-.52-2.49 0-1.37.52-2.57.51-1.2 1.39-2.08.87-.87 2.05-1.39 1.18-.51 2.51-.51 1.37 0 2.57.51 1.21.52 2.1 1.39.89.88 1.43 2.08.54 1.2.54 2.57Zm42.25 17.68-2.7 3.74q-.46.58-.89.91-.44.33-1.27.33-.79 0-1.53-.48-.75-.47-1.79-1.07-1.03-.61-2.47-1.08-1.43-.48-3.54-.48-2.7 0-4.74.97-2.03.98-3.38 2.81-1.35 1.82-2.01 4.42-.66 2.59-.66 5.87 0 3.4.72 6.06.73 2.65 2.1 4.46 1.37 1.8 3.32 2.74 1.95.93 4.4.93 2.44 0 3.96-.6 1.51-.6 2.55-1.33 1.04-.73 1.81-1.33.76-.6 1.72-.6 1.24 0 1.87.96l2.94 3.73q-1.7 1.99-3.69 3.34-1.99 1.35-4.13 2.16-2.14.81-4.4 1.14-2.26.33-4.5.33-3.94 0-7.43-1.47-3.49-1.47-6.1-4.3-2.61-2.82-4.13-6.91-1.51-4.08-1.51-9.31 0-4.69 1.34-8.7 1.35-4 3.97-6.93 2.61-2.92 6.47-4.58 3.86-1.66 8.88-1.66 4.78 0 8.36 1.53 3.59 1.54 6.46 4.4Zm63.33-17.06-2.78 5.28q-.5.87-1.06 1.26-.56.4-1.39.4-.87 0-1.89-.65-1.02-.64-2.43-1.43-1.41-.79-3.3-1.43-1.89-.64-4.46-.64-2.32 0-4.07.56-1.74.56-2.92 1.55-1.18 1-1.76 2.39-.59 1.39-.59 3.05 0 2.12 1.19 3.53 1.18 1.41 3.13 2.4 1.95 1 4.44 1.79t5.11 1.68q2.61.89 5.1 2.07 2.49 1.19 4.44 2.99 1.95 1.81 3.13 4.42 1.19 2.62 1.19 6.35 0 4.07-1.39 7.62-1.39 3.54-4.07 6.18-2.68 2.63-6.54 4.15-3.86 1.51-8.84 1.51-2.86 0-5.64-.56t-5.33-1.59q-2.56-1.04-4.8-2.49-2.24-1.46-3.98-3.24l3.28-5.35q.41-.59 1.08-.98.66-.39 1.41-.39 1.04 0 2.24.85 1.2.85 2.86 1.88 1.66 1.04 3.88 1.89 2.22.85 5.34.85 4.77 0 7.38-2.26 2.62-2.26 2.62-6.49 0-2.37-1.19-3.86-1.18-1.5-3.13-2.51-1.95-1.02-4.44-1.73-2.49-.7-5.06-1.53-2.58-.83-5.07-1.99-2.49-1.16-4.44-3.03-1.95-1.87-3.13-4.67t-1.18-6.91q0-3.28 1.3-6.39 1.31-3.11 3.8-5.52 2.49-2.41 6.14-3.86 3.66-1.45 8.39-1.45 5.31 0 9.79 1.66 4.48 1.66 7.64 4.64Zm28.01 11.13q4.73 0 8.61 1.53 3.88 1.54 6.64 4.36 2.76 2.82 4.25 6.89 1.5 4.07 1.5 9.09 0 5.06-1.5 9.13-1.49 4.06-4.25 6.93-2.76 2.86-6.64 4.4-3.88 1.53-8.61 1.53-4.77 0-8.67-1.53-3.9-1.54-6.66-4.4-2.76-2.87-4.28-6.93-1.51-4.07-1.51-9.13 0-5.02 1.51-9.09 1.52-4.07 4.28-6.89 2.76-2.82 6.66-4.36 3.9-1.53 8.67-1.53Zm0 35.98q5.31 0 7.86-3.57 2.56-3.57 2.56-10.46 0-6.89-2.56-10.5-2.55-3.61-7.86-3.61-5.4 0-7.99 3.63t-2.59 10.48q0 6.85 2.59 10.44t7.99 3.59Zm55.28-35.32h10.25v42.58h-6.27q-2.03 0-2.57-1.87l-.71-3.4q-2.61 2.66-5.77 4.29-3.15 1.64-7.42 1.64-3.49 0-6.17-1.18-2.67-1.18-4.5-3.34t-2.76-5.12q-.93-2.97-.93-6.54v-27.06h10.25v27.06q0 3.9 1.8 6.04 1.81 2.13 5.42 2.13 2.65 0 4.98-1.18 2.32-1.18 4.4-3.26v-30.79Zm29.42 2.57.62 4.82q2-3.82 4.73-6 2.74-2.18 6.48-2.18 2.95 0 4.73 1.29l-.66 7.68q-.21.74-.61 1.05-.39.32-1.05.32-.63 0-1.85-.21-1.23-.21-2.39-.21-1.7 0-3.03.5-1.32.5-2.38 1.43-1.06.93-1.87 2.26-.81 1.33-1.52 3.03v26.23H688.7v-42.58h6.02q1.58 0 2.2.56.62.56.83 2.01Zm55.11 2.7-2.69 3.74q-.46.58-.9.91-.43.33-1.26.33-.79 0-1.54-.48-.74-.47-1.78-1.07-1.04-.61-2.47-1.08-1.43-.48-3.55-.48-2.7 0-4.73.97-2.03.98-3.38 2.81-1.35 1.82-2.02 4.42-.66 2.59-.66 5.87 0 3.4.73 6.06.72 2.65 2.09 4.46 1.37 1.8 3.32 2.74 1.95.93 4.4.93t3.96-.6q1.52-.6 2.56-1.33 1.03-.73 1.8-1.33.77-.6 1.72-.6 1.25 0 1.87.96l2.95 3.73q-1.7 1.99-3.7 3.34-1.99 1.35-4.12 2.16-2.14.81-4.4 1.14-2.27.33-4.51.33-3.94 0-7.42-1.47-3.49-1.47-6.11-4.3-2.61-2.82-4.12-6.91-1.52-4.08-1.52-9.31 0-4.69 1.35-8.7 1.35-4 3.96-6.93 2.62-2.92 6.48-4.58 3.86-1.66 8.88-1.66 4.77 0 8.36 1.53 3.59 1.54 6.45 4.4Zm14.9 11.12h19.34q0-1.99-.56-3.75-.56-1.77-1.68-3.09-1.12-1.33-2.84-2.1-1.73-.77-4.01-.77-4.44 0-6.99 2.53-2.55 2.54-3.26 7.18Zm26.15 6.19h-26.36q.25 3.28 1.17 5.66.91 2.39 2.4 3.94 1.5 1.56 3.55 2.33 2.06.77 4.55.77 2.49 0 4.29-.59 1.81-.58 3.15-1.28 1.35-.71 2.37-1.29 1.02-.58 1.97-.58 1.29 0 1.91.96l2.95 3.73q-1.7 1.99-3.82 3.34-2.12 1.35-4.42 2.16t-4.69 1.14q-2.39.33-4.63.33-4.44 0-8.26-1.47-3.81-1.47-6.64-4.36-2.82-2.88-4.44-7.14-1.61-4.25-1.61-9.85 0-4.36 1.41-8.2 1.41-3.84 4.04-6.68 2.64-2.84 6.43-4.5 3.8-1.66 8.57-1.66 4.03 0 7.43 1.28 3.41 1.29 5.85 3.76 2.45 2.47 3.84 6.06 1.39 3.59 1.39 8.19 0 2.33-.49 3.14-.5.81-1.91.81Z"/></svg>